<svg width="44" height="34" viewBox="0 0 44 34" fill="none" xmlns="http://www.w3.org/2000/svg">
<path d="M32.9552 14.0002C32.97 14 32.985 14 33 14C37.9706 14 42 18.0294 42 23C42 27.9706 37.9706 32 33 32H12C6.47716 32 2 27.5228 2 22C2 16.8006 5.96796 12.5282 11.0408 12.0454M32.9552 14.0002C32.9848 13.6708 33 13.3372 33 13C33 6.92486 28.0752 2 22 2C16.2465 2 11.5247 6.41724 11.0408 12.0454M32.9552 14.0002C32.7506 16.269 31.8572 18.3392 30.4856 20M11.0408 12.0454C11.3565 12.0154 11.6765 12 12 12C14.2516 12 16.3295 12.7442 18.001 14" stroke="#B8CEDC" stroke-width="3" stroke-linecap="round" stroke-linejoin="round"/>
</svg>
